<svg xmlns="http://www.w3.org/2000/svg" viewBox="0 0 100 100">
    <circle cx="50" cy="50" r="48" fill="white" stroke="#28a745" stroke-width="2"/>
    <g transform="translate(50,50) scale(0.6)">
        <!-- Tallo -->
        <path d="M0,40 C0,40 0,10 0,-20" stroke="#28a745" stroke-width="6" fill="none"/>
        <!-- Hojas -->
        <path d="M0,-20 C-20,-30 -25,-40 -20,-50 C-15,-45 -10,-35 0,-20" fill="#28a745"/>
        <path d="M0,-20 C20,-30 25,-40 20,-50 C15,-45 10,-35 0,-20" fill="#28a745"/>
        <path d="M0,0 C-30,-10 -35,-20 -30,-30 C-25,-25 -20,-15 0,0" fill="#28a745"/>
        <path d="M0,0 C30,-10 35,-20 30,-30 C25,-25 20,-15 0,0" fill="#28a745"/>
    </g>
</svg>